<svg width="20" height="20" viewBox="0 0 20 20" fill="none" xmlns="http://www.w3.org/2000/svg">
<g clip-path="url(#clip0_498_772)">
<path d="M0.833328 10C0.833328 10 4.16666 3.33337 10 3.33337C15.8333 3.33337 19.1667 10 19.1667 10C19.1667 10 15.8333 16.6667 10 16.6667C4.16666 16.6667 0.833328 10 0.833328 10Z" stroke="#CCCCCC" stroke-width="1.66667" stroke-linecap="round" stroke-linejoin="round"/>
<path d="M10 12.5C11.3807 12.5 12.5 11.3807 12.5 10C12.5 8.61929 11.3807 7.5 10 7.5C8.61929 7.5 7.5 8.61929 7.5 10C7.5 11.3807 8.61929 12.5 10 12.5Z" stroke="#CCCCCC" stroke-width="1.66667" stroke-linecap="round" stroke-linejoin="round"/>
<line x1="0.46967" y1="18.4697" x2="17.4697" y2="1.46967" stroke="#CCCCCC" stroke-width="1.5"/>
</g>
<defs>
<clipPath id="clip0_498_772">
<rect width="20" height="20" fill="white"/>
</clipPath>
</defs>
</svg>

